<?xml version="1.0" encoding="UTF-8"?>
<!DOCTYPE svg PUBLIC "-//W3C//DTD SVG 1.1//EN" "http://www.w3.org/Graphics/SVG/1.1/DTD/svg11.dtd">
<svg xmlns="http://www.w3.org/2000/svg" version="1.1" width="500px" height="300px" style="shape-rendering:geometricPrecision; text-rendering:geometricPrecision; image-rendering:optimizeQuality; fill-rule:evenodd; clip-rule:evenodd" xmlns:xlink="http://www.w3.org/1999/xlink">
<g><path style="opacity:0.322" fill="#bdc5dd" d="M 391.5,207.5 C 396.68,206.185 402.014,206.185 407.5,207.5C 407.863,208.183 408.196,208.85 408.5,209.5C 407.833,209.5 407.167,209.5 406.5,209.5C 401.944,207.558 396.944,206.892 391.5,207.5 Z"/></g>
<g><path style="opacity:0.011" fill="#fefefe" d="M 365.5,207.5 C 365.829,222.01 365.496,236.343 364.5,250.5C 364.5,249.833 364.167,249.5 363.5,249.5C 363.5,249.167 363.5,248.833 363.5,248.5C 364.167,234.833 364.833,221.167 365.5,207.5 Z"/></g>
<g><path style="opacity:1" fill="#5d6d99" d="M 294.5,207.5 C 287.825,207.334 281.158,207.5 274.5,208C 269.645,210.357 265.979,213.857 263.5,218.5C 263.5,218.167 263.5,217.833 263.5,217.5C 264.572,211.927 267.905,208.427 273.5,207C 280.679,206.179 287.679,206.345 294.5,207.5 Z"/></g>
<g><path style="opacity:0.999" fill="#2b488c" d="M 391.5,207.5 C 396.944,206.892 401.944,207.558 406.5,209.5C 406.5,212.167 406.5,214.833 406.5,217.5C 401.968,217.182 397.634,217.515 393.5,218.5C 393.5,219.167 393.5,219.833 393.5,220.5C 392.778,220.082 392.278,219.416 392,218.5C 391.501,214.848 391.335,211.182 391.5,207.5 Z"/></g>
<g><path style="opacity:1" fill="#010116" d="M 379.5,209.5 C 380.497,230.994 380.831,252.66 380.5,274.5C 375.706,275.097 371.373,274.43 367.5,272.5C 371.5,272.5 375.5,272.5 379.5,272.5C 379.5,251.5 379.5,230.5 379.5,209.5 Z"/></g>
<g><path style="opacity:0.935" fill="#182440" d="M 406.5,209.5 C 407.167,209.5 407.833,209.5 408.5,209.5C 408.5,212.5 408.5,215.5 408.5,218.5C 403.5,218.5 398.5,218.5 393.5,218.5C 397.634,217.515 401.968,217.182 406.5,217.5C 406.5,214.833 406.5,212.167 406.5,209.5 Z"/></g>
<g><path style="opacity:0.122" fill="#e3eafb" d="M 225.5,213.5 C 225.56,212.957 225.893,212.624 226.5,212.5C 227.386,213.325 227.719,214.325 227.5,215.5C 226.833,214.833 226.167,214.167 225.5,213.5 Z"/></g>
<g><path style="opacity:1" fill="#151820" d="M 294.5,209.5 C 295.473,211.948 295.806,214.615 295.5,217.5C 291.298,217.183 287.298,217.517 283.5,218.5C 280.393,220.188 278.726,222.855 278.5,226.5C 276.991,227.859 276.324,227.359 276.5,225C 276.746,221.992 277.746,219.326 279.5,217C 284.372,215.612 289.372,215.112 294.5,215.5C 294.5,213.5 294.5,211.5 294.5,209.5 Z"/></g>
<g><path style="opacity:0.192" fill="#c1c3c4" d="M 294.5,209.5 C 294.5,209.167 294.5,208.833 294.5,208.5C 296.402,211.337 297.069,214.671 296.5,218.5C 292.167,218.5 287.833,218.5 283.5,218.5C 287.298,217.517 291.298,217.183 295.5,217.5C 295.806,214.615 295.473,211.948 294.5,209.5 Z"/></g>
<g><path style="opacity:0.639" fill="#555855" d="M 329.5,214.5 C 330.451,215.919 330.784,217.585 330.5,219.5C 330.737,220.791 330.404,221.791 329.5,222.5C 329.5,222.167 329.5,221.833 329.5,221.5C 328.583,218.995 328.583,216.662 329.5,214.5 Z"/></g>
<g><path style="opacity:1" fill="#3a3c40" d="M 393.5,218.5 C 398.5,218.5 403.5,218.5 408.5,218.5C 408.5,219.5 408.5,220.5 408.5,221.5C 403.405,221.779 398.405,221.445 393.5,220.5C 393.5,219.833 393.5,219.167 393.5,218.5 Z"/></g>
<g><path style="opacity:1" fill="#28478d" d="M 228.5,227.5 C 233.807,226.974 238.807,227.64 243.5,229.5C 243.5,231.5 243.5,233.5 243.5,235.5C 237.402,234.883 231.735,235.55 226.5,237.5C 225.103,246.72 225.27,256.053 227,265.5C 231.401,266.467 235.901,266.8 240.5,266.5C 240.5,267.833 240.5,269.167 240.5,270.5C 237.238,271.953 233.738,272.619 230,272.5C 225.629,272.518 221.462,271.851 217.5,270.5C 217.949,268.023 217.283,266.023 215.5,264.5C 215.152,254.465 214.152,244.798 212.5,235.5C 208.833,235.5 205.167,235.5 201.5,235.5C 200.527,233.052 200.194,230.385 200.5,227.5C 204.833,227.5 209.167,227.5 213.5,227.5C 213.244,223.731 213.577,220.064 214.5,216.5C 214.833,216.5 215.167,216.5 215.5,216.5C 218.493,215.865 221.493,215.699 224.5,216C 225.288,219.076 225.788,222.242 226,225.5C 226.333,222.5 226.667,219.5 227,216.5C 227.177,220.356 227.677,224.023 228.5,227.5 Z"/></g>
<g><path style="opacity:1" fill="#4c5a81" d="M 225.5,213.5 C 226.167,214.167 226.833,214.833 227.5,215.5C 228.482,218.962 228.815,222.629 228.5,226.5C 228.5,226.833 228.5,227.167 228.5,227.5C 227.677,224.023 227.177,220.356 227,216.5C 226.667,219.5 226.333,222.5 226,225.5C 225.788,222.242 225.288,219.076 224.5,216C 221.493,215.699 218.493,215.865 215.5,216.5C 218.55,214.899 221.884,213.899 225.5,213.5 Z"/></g>
<g><path style="opacity:1" fill="#29488c" d="M 294.5,207.5 C 294.5,207.833 294.5,208.167 294.5,208.5C 294.5,208.833 294.5,209.167 294.5,209.5C 294.5,211.5 294.5,213.5 294.5,215.5C 289.372,215.112 284.372,215.612 279.5,217C 277.746,219.326 276.746,221.992 276.5,225C 276.324,227.359 276.991,227.859 278.5,226.5C 282.768,226.869 286.768,227.869 290.5,229.5C 290.5,231.5 290.5,233.5 290.5,235.5C 285.833,235.5 281.167,235.5 276.5,235.5C 276.5,247.833 276.5,260.167 276.5,272.5C 272.5,272.5 268.5,272.5 264.5,272.5C 263.505,261.346 263.172,250.012 263.5,238.5C 263.5,237.5 263.5,236.5 263.5,235.5C 259.833,235.5 256.167,235.5 252.5,235.5C 251.527,233.052 251.194,230.385 251.5,227.5C 255.5,227.5 259.5,227.5 263.5,227.5C 263.5,224.5 263.5,221.5 263.5,218.5C 265.979,213.857 269.645,210.357 274.5,208C 281.158,207.5 287.825,207.334 294.5,207.5 Z"/></g>
<g><path style="opacity:0.978" fill="#4c5b88" d="M 379.5,208.5 C 379.5,208.833 379.5,209.167 379.5,209.5C 379.5,230.5 379.5,251.5 379.5,272.5C 375.5,272.5 371.5,272.5 367.5,272.5C 366.833,272.5 366.167,272.5 365.5,272.5C 364.833,265.833 364.167,259.167 363.5,252.5C 363.5,251.833 363.5,251.167 363.5,250.5C 363.833,250.5 364.167,250.5 364.5,250.5C 365.496,236.343 365.829,222.01 365.5,207.5C 367.641,206.837 369.975,206.503 372.5,206.5C 375.269,206.529 377.603,207.195 379.5,208.5 Z"/></g>
<g><path style="opacity:1" fill="#28488f" d="M 366.5,208.5 C 370.5,208.5 374.5,208.5 378.5,208.5C 378.5,229.5 378.5,250.5 378.5,271.5C 374.5,271.5 370.5,271.5 366.5,271.5C 366.5,250.5 366.5,229.5 366.5,208.5 Z"/></g>
<g><path style="opacity:0.365" fill="#b8c5df" d="M 169.5,229.5 C 164.54,227.371 159.54,227.038 154.5,228.5C 153.957,228.44 153.624,228.107 153.5,227.5C 158.5,226.167 163.5,226.167 168.5,227.5C 168.863,228.183 169.196,228.85 169.5,229.5 Z"/></g>
<g><path style="opacity:0.345" fill="#b3bed8" d="M 228.5,227.5 C 228.5,227.167 228.5,226.833 228.5,226.5C 233.544,226.173 238.544,226.506 243.5,227.5C 243.863,228.183 244.196,228.85 244.5,229.5C 244.167,229.5 243.833,229.5 243.5,229.5C 238.807,227.64 233.807,226.974 228.5,227.5 Z"/></g>
<g><path style="opacity:0.376" fill="#afb9d5" d="M 263.5,217.5 C 263.5,217.833 263.5,218.167 263.5,218.5C 263.5,221.5 263.5,224.5 263.5,227.5C 259.5,227.5 255.5,227.5 251.5,227.5C 251.194,230.385 251.527,233.052 252.5,235.5C 252.5,235.833 252.5,236.167 252.5,236.5C 250.598,233.663 249.931,230.329 250.5,226.5C 254.5,226.5 258.5,226.5 262.5,226.5C 262.19,223.287 262.523,220.287 263.5,217.5 Z"/></g>
<g><path style="opacity:0.349" fill="#b1bcd6" d="M 278.5,226.5 C 282.884,226.174 287.217,226.508 291.5,227.5C 291.863,228.183 292.196,228.85 292.5,229.5C 291.833,229.5 291.167,229.5 290.5,229.5C 286.768,227.869 282.768,226.869 278.5,226.5 Z"/></g>
<g><path style="opacity:1" fill="#3f558e" d="M 135.5,229.5 C 132.121,230.475 128.788,230.142 125.5,228.5C 123.677,229.754 121.677,230.754 119.5,231.5C 116.08,230.626 112.747,229.459 109.5,228C 110.5,227.667 111.5,227.333 112.5,227C 111.833,226.833 111.167,226.667 110.5,226.5C 107.152,227.81 103.818,228.977 100.5,230C 102.666,233.879 105.999,235.379 110.5,234.5C 102.537,239.185 99.7039,246.185 102,255.5C 102.183,252.635 102.683,249.969 103.5,247.5C 102.867,252.928 103.867,257.928 106.5,262.5C 103.684,262.456 101.351,261.456 99.5,259.5C 100.614,254.554 100.781,249.554 100,244.5C 99.8295,246.715 99.1628,248.715 98,250.5C 97.3333,247.5 97.3333,244.5 98,241.5C 98.8525,243.125 99.8525,243.458 101,242.5C 101.856,240.132 102.69,237.798 103.5,235.5C 102.5,235.5 101.5,235.5 100.5,235.5C 100.5,234.5 100.5,233.5 100.5,232.5C 98.1667,232.5 95.8333,232.5 93.5,232.5C 95.5777,229.949 98.2444,228.116 101.5,227C 111.506,223.76 121.506,223.76 131.5,227C 133.066,227.608 134.4,228.442 135.5,229.5 Z"/></g>
<g><path style="opacity:1" fill="#6f7b9e" d="M 330.5,219.5 C 331.163,221.042 331.83,222.709 332.5,224.5C 336.885,224.993 340.885,226.326 344.5,228.5C 340.167,227.833 335.833,227.167 331.5,226.5C 331.5,227.833 331.5,229.167 331.5,230.5C 330.232,228.095 329.565,225.428 329.5,222.5C 330.404,221.791 330.737,220.791 330.5,219.5 Z"/></g>
<g><path style="opacity:0.353" fill="#a3b1ce" d="M 214.5,216.5 C 213.577,220.064 213.244,223.731 213.5,227.5C 209.167,227.5 204.833,227.5 200.5,227.5C 200.194,230.385 200.527,233.052 201.5,235.5C 201.5,235.833 201.5,236.167 201.5,236.5C 199.598,233.663 198.931,230.329 199.5,226.5C 203.833,226.5 208.167,226.5 212.5,226.5C 211.931,222.671 212.598,219.337 214.5,216.5 Z"/></g>
<g><path style="opacity:1" fill="#29478a" d="M 319.5,225.5 C 320.167,225.5 320.833,225.5 321.5,225.5C 322.5,225.5 323.5,225.5 324.5,225.5C 324.634,227.292 324.301,228.958 323.5,230.5C 318.917,232.754 314.917,235.754 311.5,239.5C 309.946,240.914 308.612,242.581 307.5,244.5C 304.833,245.833 302.167,245.833 299.5,244.5C 301.179,239.65 303.512,235.15 306.5,231C 308.776,230.703 310.943,231.203 313,232.5C 313.833,232.167 314.667,231.833 315.5,231.5C 314.833,230.5 314.167,229.5 313.5,228.5C 315.398,227.266 317.065,227.599 318.5,229.5C 319.429,228.311 319.762,226.978 319.5,225.5 Z"/></g>
<g><path style="opacity:1" fill="#43598e" d="M 319.5,225.5 C 319.762,226.978 319.429,228.311 318.5,229.5C 317.065,227.599 315.398,227.266 313.5,228.5C 314.167,229.5 314.833,230.5 315.5,231.5C 314.667,231.833 313.833,232.167 313,232.5C 310.943,231.203 308.776,230.703 306.5,231C 303.512,235.15 301.179,239.65 299.5,244.5C 302.167,245.833 304.833,245.833 307.5,244.5C 308.612,242.581 309.946,240.914 311.5,239.5C 311.322,240.695 310.989,241.862 310.5,243C 310.836,244.03 311.503,244.53 312.5,244.5C 308.453,246.26 304.12,247.26 299.5,247.5C 298.508,247.672 297.842,247.338 297.5,246.5C 298.917,233.418 306.251,226.418 319.5,225.5 Z"/></g>
<g><path style="opacity:0.134" fill="#cad9f5" d="M 407.5,229.5 C 407.167,229.5 406.833,229.5 406.5,229.5C 406.167,229.5 405.833,229.5 405.5,229.5C 401.627,227.57 397.294,226.903 392.5,227.5C 392.183,242.911 392.517,258.245 393.5,273.5C 391.516,258.202 390.849,242.536 391.5,226.5C 396.544,226.173 401.544,226.506 406.5,227.5C 406.863,228.183 407.196,228.85 407.5,229.5 Z"/></g>
<g><path style="opacity:0.974" fill="#2e416c" d="M 405.5,229.5 C 405.833,229.5 406.167,229.5 406.5,229.5C 406.5,243.833 406.5,258.167 406.5,272.5C 402.029,271.911 398.029,272.577 394.5,274.5C 394.167,274.5 393.833,274.5 393.5,274.5C 393.5,274.167 393.5,273.833 393.5,273.5C 392.517,258.245 392.183,242.911 392.5,227.5C 397.294,226.903 401.627,227.57 405.5,229.5 Z"/></g>
<g><path style="opacity:0.663" fill="#9dacc3" d="M 425.5,230.5 C 424.833,231.5 424.167,232.5 423.5,233.5C 422.5,234.167 421.5,234.833 420.5,235.5C 421.167,232.833 422.833,231.167 425.5,230.5 Z"/></g>
<g><path style="opacity:1" fill="#2d498c" d="M 192.5,228.5 C 192.5,228.833 192.5,229.167 192.5,229.5C 192.5,232.167 192.5,234.833 192.5,237.5C 187.156,237.334 181.823,237.501 176.5,238C 175.619,238.708 174.953,239.542 174.5,240.5C 172.29,240.894 170.957,242.227 170.5,244.5C 169.732,245.263 169.232,246.263 169,247.5C 168.5,255.827 168.334,264.16 168.5,272.5C 164.5,272.5 160.5,272.5 156.5,272.5C 155.833,258.167 155.167,243.833 154.5,229.5C 154.5,229.167 154.5,228.833 154.5,228.5C 159.54,227.038 164.54,227.371 169.5,229.5C 169.369,230.239 169.536,230.906 170,231.5C 175.777,225.848 182.61,224.181 190.5,226.5C 191.713,226.747 192.38,227.414 192.5,228.5 Z"/></g>
<g><path style="opacity:1" fill="#495a85" d="M 111.5,234.5 C 116.305,233.513 121.305,233.179 126.5,233.5C 126.293,236.745 127.793,238.745 131,239.5C 132.447,243.958 132.614,248.291 131.5,252.5C 132.33,243.351 128.33,238.018 119.5,236.5C 121.199,236.66 122.866,236.494 124.5,236C 120.27,234.71 115.936,234.21 111.5,234.5 Z"/></g>
<g><path style="opacity:0.282" fill="#aeaeb0" d="M 379.5,209.5 C 379.5,209.167 379.5,208.833 379.5,208.5C 381.489,230.475 382.156,252.808 381.5,275.5C 376.456,275.827 371.456,275.494 366.5,274.5C 366.137,273.817 365.804,273.15 365.5,272.5C 366.167,272.5 366.833,272.5 367.5,272.5C 371.373,274.43 375.706,275.097 380.5,274.5C 380.831,252.66 380.497,230.994 379.5,209.5 Z"/></g>
<g><path style="opacity:1" fill="#304987" d="M 344.5,228.5 C 347.198,228.845 349.198,230.178 350.5,232.5C 350.953,236.027 352.453,239.027 355,241.5C 355.495,243.473 355.662,245.473 355.5,247.5C 351.5,246.833 347.5,246.167 343.5,245.5C 343.784,243.585 343.451,241.919 342.5,240.5C 340.445,238.445 338.112,236.779 335.5,235.5C 335.44,234.957 335.107,234.624 334.5,234.5C 333.818,235.243 333.151,235.909 332.5,236.5C 331.659,234.621 331.325,232.621 331.5,230.5C 331.5,229.167 331.5,227.833 331.5,226.5C 335.833,227.167 340.167,227.833 344.5,228.5 Z"/></g>
<g><path style="opacity:0.225" fill="#ccced4" d="M 192.5,229.5 C 192.5,229.167 192.5,228.833 192.5,228.5C 194.423,232.029 195.089,236.029 194.5,240.5C 193.209,240.737 192.209,240.404 191.5,239.5C 192.777,238.306 193.444,236.64 193.5,234.5C 193.493,232.631 193.16,230.964 192.5,229.5 Z"/></g>
<g><path style="opacity:1" fill="#010216" d="M 406.5,229.5 C 406.833,229.5 407.167,229.5 407.5,229.5C 407.5,244.5 407.5,259.5 407.5,274.5C 403.167,274.5 398.833,274.5 394.5,274.5C 398.029,272.577 402.029,271.911 406.5,272.5C 406.5,258.167 406.5,243.833 406.5,229.5 Z"/></g>
<g><path style="opacity:0.149" fill="#c7c9ce" d="M 407.5,229.5 C 408.496,244.658 408.83,259.991 408.5,275.5C 403.305,275.821 398.305,275.487 393.5,274.5C 393.833,274.5 394.167,274.5 394.5,274.5C 398.833,274.5 403.167,274.5 407.5,274.5C 407.5,259.5 407.5,244.5 407.5,229.5 Z"/></g>
<g><path style="opacity:1" fill="#282b33" d="M 110.5,234.5 C 110.833,234.5 111.167,234.5 111.5,234.5C 115.936,234.21 120.27,234.71 124.5,236C 122.866,236.494 121.199,236.66 119.5,236.5C 111.425,236.249 106.092,239.916 103.5,247.5C 102.683,249.969 102.183,252.635 102,255.5C 99.7039,246.185 102.537,239.185 110.5,234.5 Z"/></g>
<g><path style="opacity:1" fill="#090d1b" d="M 201.5,235.5 C 205.167,235.5 208.833,235.5 212.5,235.5C 209.316,237.414 205.649,238.08 201.5,237.5C 201.5,237.167 201.5,236.833 201.5,236.5C 201.5,236.167 201.5,235.833 201.5,235.5 Z"/></g>
<g><path style="opacity:1" fill="#20222f" d="M 252.5,235.5 C 256.167,235.5 259.833,235.5 263.5,235.5C 263.5,236.5 263.5,237.5 263.5,238.5C 263.167,238.5 262.833,238.5 262.5,238.5C 258.671,239.069 255.337,238.402 252.5,236.5C 252.5,236.167 252.5,235.833 252.5,235.5 Z"/></g>
<g><path style="opacity:1" fill="#05071b" d="M 323.5,230.5 C 323.649,231.552 323.483,232.552 323,233.5C 320.974,233.915 319.474,234.915 318.5,236.5C 315.043,236.96 313.377,238.96 313.5,242.5C 312.662,242.842 312.328,243.508 312.5,244.5C 311.503,244.53 310.836,244.03 310.5,243C 310.989,241.862 311.322,240.695 311.5,239.5C 314.917,235.754 318.917,232.754 323.5,230.5 Z"/></g>
<g><path style="opacity:1" fill="#28488f" d="M 36.5,243.5 C 34.869,248.12 35.2024,252.454 37.5,256.5C 37.3471,259.577 38.0137,262.411 39.5,265C 39.3158,266.376 38.6491,267.209 37.5,267.5C 37.5531,264.939 36.5531,262.939 34.5,261.5C 34.1667,262.167 33.8333,262.833 33.5,263.5C 34.8034,271.519 34.8034,279.519 33.5,287.5C 30.2913,288.787 27.1247,288.787 24,287.5C 23.6244,267.744 23.4577,248.078 23.5,228.5C 26.8333,228.5 30.1667,228.5 33.5,228.5C 33.4326,231.766 35.0992,233.266 38.5,233C 38.0426,233.414 37.7093,233.914 37.5,234.5C 34.8333,235.167 32.1667,235.833 29.5,236.5C 30.2421,237.287 31.0754,237.953 32,238.5C 33.3876,237.446 34.8876,237.28 36.5,238C 36.8541,239.626 36.8541,241.459 36.5,243.5 Z"/></g>
<g><path style="opacity:1" fill="#040614" d="M 192.5,229.5 C 193.16,230.964 193.493,232.631 193.5,234.5C 193.444,236.64 192.777,238.306 191.5,239.5C 190.833,239.5 190.167,239.5 189.5,239.5C 184.434,238.005 179.434,238.338 174.5,240.5C 174.953,239.542 175.619,238.708 176.5,238C 181.823,237.501 187.156,237.334 192.5,237.5C 192.5,234.833 192.5,232.167 192.5,229.5 Z"/></g>
<g><path style="opacity:1" fill="#2d4a8e" d="M 135.5,229.5 C 140.955,232.291 144.622,236.624 146.5,242.5C 148.216,254.029 144.549,263.362 135.5,270.5C 134.292,271.234 132.959,271.567 131.5,271.5C 130.167,271.5 128.833,271.5 127.5,271.5C 125.678,269.766 123.345,268.766 120.5,268.5C 116.751,270.212 112.751,270.378 108.5,269C 108.238,267.022 107.572,264.856 106.5,262.5C 114.297,266.867 121.63,266.2 128.5,260.5C 131.092,258.964 132.092,256.631 131.5,253.5C 131.5,253.167 131.5,252.833 131.5,252.5C 132.614,248.291 132.447,243.958 131,239.5C 127.793,238.745 126.293,236.745 126.5,233.5C 121.305,233.179 116.305,233.513 111.5,234.5C 111.167,234.5 110.833,234.5 110.5,234.5C 105.999,235.379 102.666,233.879 100.5,230C 103.818,228.977 107.152,227.81 110.5,226.5C 111.167,226.667 111.833,226.833 112.5,227C 111.5,227.333 110.5,227.667 109.5,228C 112.747,229.459 116.08,230.626 119.5,231.5C 121.677,230.754 123.677,229.754 125.5,228.5C 128.788,230.142 132.121,230.475 135.5,229.5 Z"/></g>
<g><path style="opacity:1" fill="#202538" d="M 290.5,229.5 C 291.167,229.5 291.833,229.5 292.5,229.5C 292.5,232.5 292.5,235.5 292.5,238.5C 287.833,238.5 283.167,238.5 278.5,238.5C 278.5,250.833 278.5,263.167 278.5,275.5C 273.381,276.103 268.715,275.436 264.5,273.5C 264.5,273.167 264.5,272.833 264.5,272.5C 268.5,272.5 272.5,272.5 276.5,272.5C 276.5,260.167 276.5,247.833 276.5,235.5C 281.167,235.5 285.833,235.5 290.5,235.5C 290.5,233.5 290.5,231.5 290.5,229.5 Z"/></g>
<g><path style="opacity:0.593" fill="#8d9cc4" d="M 36.5,229.5 C 32.066,227.763 27.3993,227.096 22.5,227.5C 22.1787,248.576 22.512,269.576 23.5,290.5C 23.5,291.167 23.5,291.833 23.5,292.5C 22.7784,292.082 22.2784,291.416 22,290.5C 21.5,269.169 21.3334,247.836 21.5,226.5C 26.2137,226.173 30.8804,226.507 35.5,227.5C 35.8627,228.183 36.1961,228.85 36.5,229.5 Z"/></g>
<g><path style="opacity:1" fill="#344b85" d="M 74.5,234.5 C 71.7555,233.916 69.4221,232.582 67.5,230.5C 65.0878,231.818 62.7544,231.651 60.5,230C 61.5,229.667 62.5,229.333 63.5,229C 58.0609,226.629 52.3942,225.963 46.5,227C 43.9242,227.782 41.9242,229.282 40.5,231.5C 45.7238,232.081 50.7238,233.081 55.5,234.5C 46.7012,232.694 40.3678,235.694 36.5,243.5C 36.8541,241.459 36.8541,239.626 36.5,238C 34.8876,237.28 33.3876,237.446 32,238.5C 31.0754,237.953 30.2421,237.287 29.5,236.5C 32.1667,235.833 34.8333,235.167 37.5,234.5C 37.7093,233.914 38.0426,233.414 38.5,233C 35.0992,233.266 33.4326,231.766 33.5,228.5C 30.1667,228.5 26.8333,228.5 23.5,228.5C 23.4577,248.078 23.6244,267.744 24,287.5C 27.1247,288.787 30.2913,288.787 33.5,287.5C 34.8034,279.519 34.8034,271.519 33.5,263.5C 33.8333,262.833 34.1667,262.167 34.5,261.5C 36.5531,262.939 37.5531,264.939 37.5,267.5C 36.8826,267.389 36.3826,267.056 36,266.5C 35.5003,274.493 35.3336,282.493 35.5,290.5C 31.5,290.5 27.5,290.5 23.5,290.5C 22.512,269.576 22.1787,248.576 22.5,227.5C 27.3993,227.096 32.066,227.763 36.5,229.5C 36.4346,229.938 36.6012,230.272 37,230.5C 48.8843,222.534 60.7176,222.701 72.5,231C 73.8228,231.816 74.4894,232.983 74.5,234.5 Z"/></g>
<g><path style="opacity:1" fill="#2b498f" d="M 93.5,232.5 C 95.8333,232.5 98.1667,232.5 100.5,232.5C 100.5,233.5 100.5,234.5 100.5,235.5C 101.5,235.5 102.5,235.5 103.5,235.5C 102.69,237.798 101.856,240.132 101,242.5C 99.8525,243.458 98.8525,243.125 98,241.5C 97.3333,244.5 97.3333,247.5 98,250.5C 99.1628,248.715 99.8295,246.715 100,244.5C 100.781,249.554 100.614,254.554 99.5,259.5C 101.351,261.456 103.684,262.456 106.5,262.5C 107.572,264.856 108.238,267.022 108.5,269C 112.751,270.378 116.751,270.212 120.5,268.5C 123.345,268.766 125.678,269.766 127.5,271.5C 119.344,272.657 111.01,272.823 102.5,272C 97.974,269.79 93.974,266.957 90.5,263.5C 90.6107,262.883 90.944,262.383 91.5,262C 87.9942,256.436 86.6608,250.269 87.5,243.5C 87.6847,238.794 89.6847,235.127 93.5,232.5 Z"/></g>
<g><path style="opacity:1" fill="#171c2f" d="M 243.5,229.5 C 243.833,229.5 244.167,229.5 244.5,229.5C 244.5,232.5 244.5,235.5 244.5,238.5C 239.167,238.5 233.833,238.5 228.5,238.5C 227.671,245.655 227.171,252.989 227,260.5C 226.5,252.841 226.334,245.174 226.5,237.5C 231.735,235.55 237.402,234.883 243.5,235.5C 243.5,233.5 243.5,231.5 243.5,229.5 Z"/></g>
<g><path style="opacity:0.988" fill="#525554" d="M 318.5,236.5 C 316.804,238.525 315.137,240.525 313.5,242.5C 313.377,238.96 315.043,236.96 318.5,236.5 Z"/></g>
<g><path style="opacity:1" fill="#29488c" d="M 405.5,229.5 C 405.5,243.5 405.5,257.5 405.5,271.5C 401.563,271.793 397.73,271.46 394,270.5C 393.5,256.504 393.333,242.504 393.5,228.5C 397.6,228.237 401.6,228.57 405.5,229.5 Z"/></g>
<g><path style="opacity:1" fill="#29478d" d="M 470.5,233.5 C 471.719,237.734 472.886,242.067 474,246.5C 475.56,253.37 474.06,259.37 469.5,264.5C 468.272,266.321 466.606,267.321 464.5,267.5C 464.5,268.5 464.5,269.5 464.5,270.5C 453.287,275.326 441.954,275.659 430.5,271.5C 430.167,268.5 431.5,267.167 434.5,267.5C 434.5,266.5 434.5,265.5 434.5,264.5C 438.623,265.907 442.79,267.24 447,268.5C 449.041,267.577 451.208,267.244 453.5,267.5C 453.433,266.041 453.766,264.708 454.5,263.5C 456.5,263.5 458.5,263.5 460.5,263.5C 460.262,267.099 461.262,267.433 463.5,264.5C 462.5,263.167 461.5,261.833 460.5,260.5C 460.709,259.914 461.043,259.414 461.5,259C 463.417,259.027 465.084,259.861 466.5,261.5C 467.692,257.895 466.359,255.895 462.5,255.5C 462.899,249.333 462.232,243.333 460.5,237.5C 463.021,237.44 465.354,238.106 467.5,239.5C 468.167,239.167 468.833,238.833 469.5,238.5C 466.658,237.996 465.325,236.329 465.5,233.5C 467.36,234.071 469.027,234.071 470.5,233.5 Z"/></g>
<g><path style="opacity:0.701" fill="#707c95" d="M 154.5,229.5 C 155.167,243.833 155.833,258.167 156.5,272.5C 160.373,274.43 164.706,275.097 169.5,274.5C 169.175,266.981 169.508,259.648 170.5,252.5C 170.5,260.167 170.5,267.833 170.5,275.5C 165.025,276.081 159.858,275.414 155,273.5C 154.5,258.837 154.333,244.17 154.5,229.5 Z"/></g>
<g><path style="opacity:0.949" fill="#727aa3" d="M 326.5,213.5 C 327.166,219.157 327.499,224.99 327.5,231C 327.496,237.207 326.829,243.04 325.5,248.5C 322.471,243.321 318.137,241.988 312.5,244.5C 312.328,243.508 312.662,242.842 313.5,242.5C 319.183,243.993 321.683,241.66 321,235.5C 320.329,236.252 319.496,236.586 318.5,236.5C 319.474,234.915 320.974,233.915 323,233.5C 323.483,232.552 323.649,231.552 323.5,230.5C 324.301,228.958 324.634,227.292 324.5,225.5C 323.5,225.5 322.5,225.5 321.5,225.5C 322.209,224.596 323.209,224.263 324.5,224.5C 324.691,220.738 325.358,217.071 326.5,213.5 Z"/></g>
<g><path style="opacity:0.521" fill="#98a1c4" d="M 262.5,238.5 C 262.833,238.5 263.167,238.5 263.5,238.5C 263.172,250.012 263.505,261.346 264.5,272.5C 264.5,272.833 264.5,273.167 264.5,273.5C 262.522,262.215 261.855,250.548 262.5,238.5 Z"/></g>
<g><path style="opacity:1" fill="#3c3f44" d="M 189.5,239.5 C 179.933,238.765 173.6,242.765 170.5,251.5C 170.5,249.167 170.5,246.833 170.5,244.5C 170.957,242.227 172.29,240.894 174.5,240.5C 179.434,238.338 184.434,238.005 189.5,239.5 Z"/></g>
<g><path style="opacity:1" fill="#6f779f" d="M 350.5,232.5 C 354.688,236.2 357.355,240.867 358.5,246.5C 360.022,247.562 361.688,248.229 363.5,248.5C 363.5,248.833 363.5,249.167 363.5,249.5C 363.5,249.833 363.5,250.167 363.5,250.5C 361.833,250.5 360.167,250.5 358.5,250.5C 349.014,249.506 339.348,249.173 329.5,249.5C 328.662,249.158 328.328,248.492 328.5,247.5C 333.342,245.138 334.676,241.472 332.5,236.5C 333.151,235.909 333.818,235.243 334.5,234.5C 335.107,234.624 335.44,234.957 335.5,235.5C 335.135,237.588 335.135,239.921 335.5,242.5C 337.861,242.674 340.194,243.007 342.5,243.5C 342.5,242.5 342.5,241.5 342.5,240.5C 343.451,241.919 343.784,243.585 343.5,245.5C 347.5,246.167 351.5,246.833 355.5,247.5C 355.662,245.473 355.495,243.473 355,241.5C 352.453,239.027 350.953,236.027 350.5,232.5 Z M 335.5,235.5 C 338.112,236.779 340.445,238.445 342.5,240.5C 342.5,241.5 342.5,242.5 342.5,243.5C 340.194,243.007 337.861,242.674 335.5,242.5C 335.135,239.921 335.135,237.588 335.5,235.5 Z"/></g>
<g><path style="opacity:1" fill="#282c3c" d="M 55.5,234.5 C 56.6602,236.203 55.9935,236.869 53.5,236.5C 42.4147,237.923 37.0813,244.256 37.5,255.5C 37.5,255.833 37.5,256.167 37.5,256.5C 35.2024,252.454 34.869,248.12 36.5,243.5C 40.3678,235.694 46.7012,232.694 55.5,234.5 Z"/></g>
<g><path style="opacity:0.103" fill="#dde0eb" d="M 329.5,214.5 C 328.583,216.662 328.583,218.995 329.5,221.5C 328.507,229.984 328.174,238.651 328.5,247.5C 328.328,248.492 328.662,249.158 329.5,249.5C 331.167,251.5 332.833,253.5 334.5,255.5C 331.907,254.246 329.573,252.58 327.5,250.5C 327.167,250.5 326.833,250.5 326.5,250.5C 316.681,249.506 306.681,249.173 296.5,249.5C 295.5,249.5 294.5,249.5 293.5,249.5C 293.5,250.5 293.5,251.5 293.5,252.5C 291.866,251.793 290.532,250.627 289.5,249C 292.202,248.16 294.868,247.327 297.5,246.5C 297.842,247.338 298.508,247.672 299.5,247.5C 307.984,248.493 316.651,248.826 325.5,248.5C 326.829,243.04 327.496,237.207 327.5,231C 327.499,224.99 327.166,219.157 326.5,213.5C 327.625,211.162 328.625,211.495 329.5,214.5 Z"/></g>
<g><path style="opacity:1" fill="#2a4890" d="M 421.5,265.5 C 421.611,264.883 421.944,264.383 422.5,264C 418.654,257.474 416.988,250.307 417.5,242.5C 417.552,239.654 418.552,237.32 420.5,235.5C 421.5,234.833 422.5,234.167 423.5,233.5C 425.117,232.962 426.784,232.629 428.5,232.5C 429.179,234.668 430.179,236.668 431.5,238.5C 430.747,244.804 430.247,251.137 430,257.5C 428.556,259.155 426.722,259.822 424.5,259.5C 424.372,261.655 424.872,263.655 426,265.5C 427.772,263.094 429.939,261.094 432.5,259.5C 432.833,259.833 433.167,260.167 433.5,260.5C 432.351,263.813 430.185,266.146 427,267.5C 425.061,267.046 423.228,266.379 421.5,265.5 Z"/></g>
<g><path style="opacity:0.927" fill="#757da5" d="M 296.5,249.5 C 306.681,249.173 316.681,249.506 326.5,250.5C 324.652,252.516 322.985,254.683 321.5,257C 322.726,260.402 323.393,263.902 323.5,267.5C 322.508,267.672 321.842,267.338 321.5,266.5C 322.043,266.44 322.376,266.107 322.5,265.5C 322.273,261.761 320.606,259.094 317.5,257.5C 318.675,257.719 319.675,257.386 320.5,256.5C 317.251,255.188 313.918,254.188 310.5,253.5C 306.62,251.952 302.787,251.285 299,251.5C 298.833,252.5 298.667,253.5 298.5,254.5C 300.087,257.67 301.087,261.003 301.5,264.5C 298.611,261.509 297.278,257.842 297.5,253.5C 296.209,253.737 295.209,253.404 294.5,252.5C 297.248,252.598 297.914,251.598 296.5,249.5 Z"/></g>
<g><path style="opacity:0.992" fill="#1b1923" d="M 296.5,249.5 C 297.914,251.598 297.248,252.598 294.5,252.5C 294.167,252.5 293.833,252.5 293.5,252.5C 293.5,251.5 293.5,250.5 293.5,249.5C 294.5,249.5 295.5,249.5 296.5,249.5 Z"/></g>
<g><path style="opacity:0.998" fill="#33343b" d="M 354.5,251.5 C 355.568,250.566 356.901,250.232 358.5,250.5C 360.167,250.5 361.833,250.5 363.5,250.5C 363.5,251.167 363.5,251.833 363.5,252.5C 361.958,253.301 360.292,253.634 358.5,253.5C 358.664,263.189 354.331,269.856 345.5,273.5C 346.167,272.167 346.833,270.833 347.5,269.5C 352.254,265.675 355.254,260.675 356.5,254.5C 356.36,252.97 355.693,251.97 354.5,251.5 Z"/></g>
<g><path style="opacity:1" fill="#5d6b9c" d="M 417.5,242.5 C 416.988,250.307 418.654,257.474 422.5,264C 421.944,264.383 421.611,264.883 421.5,265.5C 419.254,263.351 417.754,260.684 417,257.5C 416.184,252.316 416.35,247.316 417.5,242.5 Z"/></g>
<g><path style="opacity:1" fill="#030923" d="M 170.5,244.5 C 170.5,246.833 170.5,249.167 170.5,251.5C 170.5,251.833 170.5,252.167 170.5,252.5C 169.508,259.648 169.175,266.981 169.5,274.5C 164.706,275.097 160.373,274.43 156.5,272.5C 160.5,272.5 164.5,272.5 168.5,272.5C 168.334,264.16 168.5,255.827 169,247.5C 169.232,246.263 169.732,245.263 170.5,244.5 Z"/></g>
<g><path style="opacity:0.999" fill="#14151a" d="M 310.5,253.5 C 313.918,254.188 317.251,255.188 320.5,256.5C 319.675,257.386 318.675,257.719 317.5,257.5C 315.708,257.634 314.042,257.301 312.5,256.5C 311.833,256.833 311.167,257.167 310.5,257.5C 310.5,256.167 310.5,254.833 310.5,253.5 Z"/></g>
<g><path style="opacity:0.996" fill="#222326" d="M 340.5,254.5 C 344.005,254.694 344.338,255.694 341.5,257.5C 338.774,257.855 336.774,259.188 335.5,261.5C 335.023,264.025 333.69,266.025 331.5,267.5C 331.735,263.053 333.068,259.053 335.5,255.5C 337.042,254.699 338.708,254.366 340.5,254.5 Z"/></g>
<g><path style="opacity:1" fill="#3a4a78" d="M 74.5,234.5 C 78.3585,237.888 80.3585,242.222 80.5,247.5C 80.0487,252.087 78.7154,256.42 76.5,260.5C 76.6122,255.489 76.9455,250.489 77.5,245.5C 77.2325,241.457 76.2325,237.79 74.5,234.5 Z"/></g>
<g><path style="opacity:1" fill="#7380a9" d="M 87.5,243.5 C 86.6608,250.269 87.9942,256.436 91.5,262C 90.944,262.383 90.6107,262.883 90.5,263.5C 88.6885,261.615 87.5218,259.281 87,256.5C 86.1864,251.98 86.353,247.646 87.5,243.5 Z"/></g>
<g><path style="opacity:1" fill="#8291b4" d="M 131.5,253.5 C 132.092,256.631 131.092,258.964 128.5,260.5C 129.656,258.176 130.656,255.843 131.5,253.5 Z"/></g>
<g><path style="opacity:1" fill="#506294" d="M 55.5,234.5 C 58.8819,234.726 61.8819,235.726 64.5,237.5C 65.3498,244.799 65.6831,252.132 65.5,259.5C 64.448,259.351 63.448,259.517 62.5,260C 60.7193,262.237 58.7193,264.237 56.5,266C 53.633,266.801 50.9664,266.634 48.5,265.5C 62.6071,262.955 67.1071,254.955 62,241.5C 59.4692,239.097 56.6359,237.43 53.5,236.5C 55.9935,236.869 56.6602,236.203 55.5,234.5 Z"/></g>
<g><path style="opacity:1" fill="#2b498d" d="M 74.5,234.5 C 76.2325,237.79 77.2325,241.457 77.5,245.5C 76.9455,250.489 76.6122,255.489 76.5,260.5C 73.9902,266.509 69.6568,270.676 63.5,273C 55.2965,273.982 47.2965,273.482 39.5,271.5C 38.8333,271.5 38.5,271.167 38.5,270.5C 38.1667,269.833 37.8333,269.167 37.5,268.5C 37.5,268.167 37.5,267.833 37.5,267.5C 38.6491,267.209 39.3158,266.376 39.5,265C 38.0137,262.411 37.3471,259.577 37.5,256.5C 37.5,256.167 37.5,255.833 37.5,255.5C 39.2745,260.942 42.9412,264.276 48.5,265.5C 50.9664,266.634 53.633,266.801 56.5,266C 58.7193,264.237 60.7193,262.237 62.5,260C 63.448,259.517 64.448,259.351 65.5,259.5C 65.6831,252.132 65.3498,244.799 64.5,237.5C 61.8819,235.726 58.8819,234.726 55.5,234.5C 50.7238,233.081 45.7238,232.081 40.5,231.5C 41.9242,229.282 43.9242,227.782 46.5,227C 52.3942,225.963 58.0609,226.629 63.5,229C 62.5,229.333 61.5,229.667 60.5,230C 62.7544,231.651 65.0878,231.818 67.5,230.5C 69.4221,232.582 71.7555,233.916 74.5,234.5 Z"/></g>
<g><path style="opacity:0.957" fill="#6e76a5" d="M 327.5,250.5 C 329.573,252.58 331.907,254.246 334.5,255.5C 334.833,255.5 335.167,255.5 335.5,255.5C 333.068,259.053 331.735,263.053 331.5,267.5C 330.542,269.302 329.875,271.302 329.5,273.5C 329.829,276.228 329.163,278.562 327.5,280.5C 327.5,270.5 327.5,260.5 327.5,250.5 Z"/></g>
<g><path style="opacity:1" fill="#29478d" d="M 310.5,253.5 C 310.5,254.833 310.5,256.167 310.5,257.5C 310.317,259.936 310.984,262.103 312.5,264C 310.291,264.957 310.457,266.124 313,267.5C 313.388,266.572 314.055,265.905 315,265.5C 317.22,267.193 319.72,268.193 322.5,268.5C 322.5,269.833 322.5,271.167 322.5,272.5C 320.801,272.66 319.134,272.494 317.5,272C 318.308,271.692 318.975,271.192 319.5,270.5C 318.372,269.738 317.205,269.071 316,268.5C 313.757,270.282 311.257,270.782 308.5,270C 306.578,267.57 304.245,265.737 301.5,264.5C 301.087,261.003 300.087,257.67 298.5,254.5C 298.667,253.5 298.833,252.5 299,251.5C 302.787,251.285 306.62,251.952 310.5,253.5 Z"/></g>
<g><path style="opacity:1" fill="#314a88" d="M 354.5,251.5 C 355.693,251.97 356.36,252.97 356.5,254.5C 355.254,260.675 352.254,265.675 347.5,269.5C 341.881,272.404 335.881,273.737 329.5,273.5C 329.875,271.302 330.542,269.302 331.5,267.5C 333.69,266.025 335.023,264.025 335.5,261.5C 335.272,263.355 335.939,264.188 337.5,264C 339.543,262.292 341.21,260.292 342.5,258C 342.272,257.601 341.938,257.435 341.5,257.5C 344.338,255.694 344.005,254.694 340.5,254.5C 344.921,252.898 349.588,251.898 354.5,251.5 Z"/></g>
<g><path style="opacity:1" fill="#415281" d="M 212.5,235.5 C 214.152,244.798 215.152,254.465 215.5,264.5C 217.283,266.023 217.949,268.023 217.5,270.5C 221.462,271.851 225.629,272.518 230,272.5C 233.738,272.619 237.238,271.953 240.5,270.5C 240.5,269.167 240.5,267.833 240.5,266.5C 235.901,266.8 231.401,266.467 227,265.5C 225.27,256.053 225.103,246.72 226.5,237.5C 226.334,245.174 226.5,252.841 227,260.5C 227.171,252.989 227.671,245.655 228.5,238.5C 228.334,246.507 228.5,254.507 229,262.5C 232.243,264.263 235.743,264.929 239.5,264.5C 241.179,264.285 242.179,264.952 242.5,266.5C 242.5,268.5 242.5,270.5 242.5,272.5C 234.653,273.468 226.987,273.802 219.5,273.5C 216.006,271.5 213.84,268.5 213,264.5C 212.5,255.84 212.334,247.173 212.5,238.5C 208.629,238.815 204.962,238.482 201.5,237.5C 205.649,238.08 209.316,237.414 212.5,235.5 Z"/></g>
<g><path style="opacity:1" fill="#3a518d" d="M 470.5,233.5 C 469.027,234.071 467.36,234.071 465.5,233.5C 465.325,236.329 466.658,237.996 469.5,238.5C 468.833,238.833 468.167,239.167 467.5,239.5C 465.354,238.106 463.021,237.44 460.5,237.5C 462.232,243.333 462.899,249.333 462.5,255.5C 466.359,255.895 467.692,257.895 466.5,261.5C 465.084,259.861 463.417,259.027 461.5,259C 461.043,259.414 460.709,259.914 460.5,260.5C 461.5,261.833 462.5,263.167 463.5,264.5C 461.262,267.433 460.262,267.099 460.5,263.5C 458.5,263.5 456.5,263.5 454.5,263.5C 453.766,264.708 453.433,266.041 453.5,267.5C 451.208,267.244 449.041,267.577 447,268.5C 442.79,267.24 438.623,265.907 434.5,264.5C 434.5,265.5 434.5,266.5 434.5,267.5C 431.5,267.167 430.167,268.5 430.5,271.5C 429.508,271.328 428.842,271.662 428.5,272.5C 425.167,271.167 422.833,268.833 421.5,265.5C 423.228,266.379 425.061,267.046 427,267.5C 430.185,266.146 432.351,263.813 433.5,260.5C 433.167,260.167 432.833,259.833 432.5,259.5C 429.939,261.094 427.772,263.094 426,265.5C 424.872,263.655 424.372,261.655 424.5,259.5C 426.722,259.822 428.556,259.155 430,257.5C 430.247,251.137 430.747,244.804 431.5,238.5C 430.179,236.668 429.179,234.668 428.5,232.5C 426.784,232.629 425.117,232.962 423.5,233.5C 424.167,232.5 424.833,231.5 425.5,230.5C 426.975,228.59 428.975,227.424 431.5,227C 443.901,223.384 455.901,224.384 467.5,230C 468.71,231.039 469.71,232.206 470.5,233.5 Z M 454.5,237.5 C 463.684,246.033 463.684,254.7 454.5,263.5C 447.312,266.694 440.812,265.694 435,260.5C 434.098,258.073 433.264,255.74 432.5,253.5C 433.893,240.117 441.226,234.784 454.5,237.5 Z"/></g>
<g><path style="opacity:1" fill="#2e303b" d="M 454.5,237.5 C 441.226,234.784 433.893,240.117 432.5,253.5C 431.278,252.311 431.111,248.978 432,243.5C 436.174,234.868 443.007,232.035 452.5,235C 453.833,235.667 455.167,236.333 456.5,237C 455.906,237.464 455.239,237.631 454.5,237.5 Z"/></g>
<g><path style="opacity:0.988" fill="#34373f" d="M 146.5,242.5 C 150.339,253.804 148.006,263.637 139.5,272C 138.255,272.791 136.922,273.291 135.5,273.5C 135.5,272.5 135.5,271.5 135.5,270.5C 144.549,263.362 148.216,254.029 146.5,242.5 Z"/></g>
<g><path style="opacity:1" fill="#344a7d" d="M 470.5,233.5 C 473.502,236.161 475.502,239.495 476.5,243.5C 475.855,249.064 475.022,254.731 474,260.5C 472.006,264.993 468.84,268.326 464.5,270.5C 464.5,269.5 464.5,268.5 464.5,267.5C 466.606,267.321 468.272,266.321 469.5,264.5C 474.06,259.37 475.56,253.37 474,246.5C 472.886,242.067 471.719,237.734 470.5,233.5 Z"/></g>
<g><path style="opacity:1" fill="#405182" d="M 312.5,256.5 C 313.362,261.698 316.362,265.031 321.5,266.5C 321.842,267.338 322.508,267.672 323.5,267.5C 324.657,270.273 325.324,273.273 325.5,276.5C 325.167,276.5 324.833,276.5 324.5,276.5C 321.941,276.802 319.607,276.468 317.5,275.5C 319.924,275.808 322.257,275.474 324.5,274.5C 320.675,273.735 316.842,273.068 313,272.5C 312.235,272.57 311.735,272.903 311.5,273.5C 306.896,271.895 303.562,268.895 301.5,264.5C 304.245,265.737 306.578,267.57 308.5,270C 311.257,270.782 313.757,270.282 316,268.5C 317.205,269.071 318.372,269.738 319.5,270.5C 318.975,271.192 318.308,271.692 317.5,272C 319.134,272.494 320.801,272.66 322.5,272.5C 322.5,271.167 322.5,269.833 322.5,268.5C 319.72,268.193 317.22,267.193 315,265.5C 314.055,265.905 313.388,266.572 313,267.5C 310.457,266.124 310.291,264.957 312.5,264C 310.984,262.103 310.317,259.936 310.5,257.5C 311.167,257.167 311.833,256.833 312.5,256.5 Z"/></g>
<g><path style="opacity:0.561" fill="#7f8491" d="M 239.5,264.5 C 241.23,263.088 242.73,263.422 244,265.5C 244.498,268.817 244.665,272.15 244.5,275.5C 243.167,275.5 241.833,275.5 240.5,275.5C 241.209,274.596 242.209,274.263 243.5,274.5C 243.806,271.615 243.473,268.948 242.5,266.5C 242.179,264.952 241.179,264.285 239.5,264.5 Z"/></g>
<g><path style="opacity:1" fill="#0a1121" d="M 37.5,267.5 C 37.5,267.833 37.5,268.167 37.5,268.5C 36.5076,276.316 36.1743,284.316 36.5,292.5C 32.1667,292.5 27.8333,292.5 23.5,292.5C 23.5,291.833 23.5,291.167 23.5,290.5C 27.5,290.5 31.5,290.5 35.5,290.5C 35.3336,282.493 35.5003,274.493 36,266.5C 36.3826,267.056 36.8826,267.389 37.5,267.5 Z"/></g>
<g><path style="opacity:1" fill="#364873" d="M 90.5,263.5 C 93.974,266.957 97.974,269.79 102.5,272C 111.01,272.823 119.344,272.657 127.5,271.5C 128.833,271.5 130.167,271.5 131.5,271.5C 129.123,272.887 126.457,273.721 123.5,274C 117.294,274.772 111.128,274.605 105,273.5C 104.5,273.667 104,273.833 103.5,274C 104.416,274.278 105.082,274.778 105.5,275.5C 98.3414,274.1 93.3414,270.1 90.5,263.5 Z"/></g>
<g><path style="opacity:0.791" fill="#46494f" d="M 37.5,268.5 C 37.8333,269.167 38.1667,269.833 38.5,270.5C 37.8333,277.833 37.1667,285.167 36.5,292.5C 36.1743,284.316 36.5076,276.316 37.5,268.5 Z"/></g>
<g><path style="opacity:1" fill="#2a2b34" d="M 242.5,266.5 C 243.473,268.948 243.806,271.615 243.5,274.5C 242.209,274.263 241.209,274.596 240.5,275.5C 235.886,276.55 231.22,276.717 226.5,276C 223.809,275.844 221.476,275.011 219.5,273.5C 226.987,273.802 234.653,273.468 242.5,272.5C 242.5,270.5 242.5,268.5 242.5,266.5 Z"/></g>
<g><path style="opacity:1" fill="#22242e" d="M 347.5,269.5 C 346.833,270.833 346.167,272.167 345.5,273.5C 341.514,275.564 337.181,276.897 332.5,277.5C 331.828,279.53 331.162,281.53 330.5,283.5C 329.222,283.782 328.222,284.449 327.5,285.5C 327.5,284.167 327.5,282.833 327.5,281.5C 327.5,281.167 327.5,280.833 327.5,280.5C 329.163,278.562 329.829,276.228 329.5,273.5C 335.881,273.737 341.881,272.404 347.5,269.5 Z"/></g>
<g><path style="opacity:1" fill="#31333e" d="M 80.5,247.5 C 82.4945,265.681 74.3278,275.681 56,277.5C 49.6975,277.347 44.1975,275.347 39.5,271.5C 47.2965,273.482 55.2965,273.982 63.5,273C 69.6568,270.676 73.9902,266.509 76.5,260.5C 78.7154,256.42 80.0487,252.087 80.5,247.5 Z"/></g>
<g><path style="opacity:1" fill="#181d27" d="M 317.5,275.5 C 315.214,275.405 313.214,274.738 311.5,273.5C 311.735,272.903 312.235,272.57 313,272.5C 316.842,273.068 320.675,273.735 324.5,274.5C 322.257,275.474 319.924,275.808 317.5,275.5 Z"/></g>
<g><path style="opacity:1" fill="#2d2f3a" d="M 476.5,243.5 C 480.679,266.336 471.013,277.67 447.5,277.5C 442.427,277.099 437.427,276.266 432.5,275C 430.934,274.392 429.6,273.558 428.5,272.5C 428.842,271.662 429.508,271.328 430.5,271.5C 441.954,275.659 453.287,275.326 464.5,270.5C 468.84,268.326 472.006,264.993 474,260.5C 475.022,254.731 475.855,249.064 476.5,243.5 Z"/></g>
<g><path style="opacity:1" fill="#2f3037" d="M 135.5,270.5 C 135.5,271.5 135.5,272.5 135.5,273.5C 125.828,277.756 115.828,278.423 105.5,275.5C 105.082,274.778 104.416,274.278 103.5,274C 104,273.833 104.5,273.667 105,273.5C 111.128,274.605 117.294,274.772 123.5,274C 126.457,273.721 129.123,272.887 131.5,271.5C 132.959,271.567 134.292,271.234 135.5,270.5 Z"/></g>
<g><path style="opacity:0.208" fill="#d5d0d1" d="M 324.5,276.5 C 324.833,276.5 325.167,276.5 325.5,276.5C 326.167,278.167 326.833,279.833 327.5,281.5C 327.5,282.833 327.5,284.167 327.5,285.5C 326.054,282.746 325.054,279.746 324.5,276.5 Z"/></g>
<g><path style="opacity:1" fill="#636664" d="M 330.5,283.5 C 330.769,285.429 330.269,287.095 329,288.5C 327.961,287.756 327.461,286.756 327.5,285.5C 328.222,284.449 329.222,283.782 330.5,283.5 Z"/></g>
</svg>
